Coordinates
version=1
nRows=29
nColumns=24
inDegrees=yes

Units are S.I. units (second, meters, Newtons, ...)
Angles are in degrees.

endheader
time	pelvis_tilt	pelvis_list	pelvis_rotation	pelvis_tx	pelvis_ty	pelvis_tz	hip_flexion_r	hip_adduction_r	hip_rotation_r	knee_angle_r	ankle_angle_r	subtalar_angle_r	mtp_angle_r	hip_flexion_l	hip_adduction_l	hip_rotation_l	knee_angle_l	ankle_angle_l	subtalar_angle_l	mtp_angle_l	lumbar_extension	lumbar_bending	lumbar_rotation
      1.70366667	      1.45970281	     11.16740259	     -6.48651570	      1.34763464	      1.00080605	      0.26900801	     11.09282115	    -15.28588966	      1.63892416	    -67.92693445	     -4.44942715	     -9.11712951	      0.16547231	     10.36864375	     16.40627273	      4.80757604	    -18.65980904	      4.06754258	    -20.98816078	     -6.76485222	    -13.15396431	     -6.79449874	      2.16136090
      1.70783333	      1.53132939	     10.98192180	     -6.31766621	      1.35257176	      1.00196328	      0.26867797	     11.55150603	    -15.00408665	      1.67845158	    -67.67413483	     -3.24538908	     -8.66403749	      0.18843682	      9.66830587	     16.29669897	      5.21233747	    -18.17211947	      4.04368360	    -21.09911140	     -6.75604594	    -13.26215976	     -6.49486307	      1.79542233
      1.71200000	      1.59490259	     10.80514895	     -6.16751348	      1.35746709	      1.00306140	      0.26837663	     12.02604123	    -14.72839236	      1.73936241	    -67.39103759	     -2.07691361	     -8.22844149	      0.20221689	      8.98216609	     16.18487725	      5.59710524	    -17.67628660	      4.00999235	    -21.20184058	     -6.74789871	    -13.36210232	     -6.21044588	      1.46310951
      1.71616667	      1.68134462	     10.65465121	     -6.02013872	      1.36237126	      1.00415215	      0.26807538	     12.46946739	    -14.49191146	      1.79317173	    -67.06491828	     -0.94534846	     -7.85180874	      0.19069328	      8.25992769	     16.10096696	      6.00988109	    -17.14467757	      3.90086112	    -21.39039658	     -6.74307821	    -13.48300390	     -5.95347187	      1.06674025
      1.72033333	      1.74532586	     10.46137174	     -5.88815411	      1.36727867	      1.00518430	      0.26780890	     12.92507032	    -14.19934330	      1.86187778	    -66.68680256	      0.09212780	     -7.43862163	      0.18496952	      7.58061893	     15.95397079	      6.35096137	    -16.65997366	      3.91813683	    -21.44781858	     -6.73752953	    -13.57473440	     -5.65560840	      0.82854076
      1.72450000	      1.82813230	     10.31432269	     -5.74591552	      1.37217032	      1.00617334	      0.26753508	     13.36278024	    -13.96710350	      1.91918145	    -66.28897527	      1.11281297	     -7.12027287	      0.15090002	      6.87328141	     15.85709680	      6.73240044	    -16.14351823	      3.83283936	    -21.59373122	     -6.73516624	    -13.69149171	     -5.41863109	      0.46798235
      1.72866667	      1.89765946	     10.13589594	     -5.61525689	      1.37703460	      1.00712525	      0.26727595	     13.79875819	    -13.69675085	      1.98493658	    -65.83129857	      2.04462390	     -6.79008631	      0.12622941	      6.18998845	     15.71375675	      7.06600482	    -15.63618641	      3.82623862	    -21.65680666	     -6.73326550	    -13.78791056	     -5.13232955	      0.22011072
      1.73283333	      1.95704776	      9.97494194	     -5.49231943	      1.38191703	      1.00799240	      0.26704709	     14.24839514	    -13.43961501	      2.06874154	    -65.35206958	      2.93256539	     -6.52353961	      0.09191793	      5.51973487	     15.58234413	      7.39428589	    -15.13464069	      3.79372861	    -21.74417039	     -6.73274963	    -13.87331393	     -4.87256292	     -0.04924028
      1.73700000	      2.04129251	      9.85200861	     -5.36999389	      1.38677923	      1.00882615	      0.26681187	     14.67042728	    -13.24007827	      2.13696777	    -64.84548030	      3.80030820	     -6.32036944	      0.01585592	      4.82325718	     15.49214862	      7.74710645	    -14.61093895	      3.67921302	    -21.91580018	     -6.73486882	    -13.98790910	     -4.66135351	     -0.37134081
      1.74116667	      2.08986346	      9.68631755	     -5.24962010	      1.39157720	      1.00958267	      0.26660762	     15.12041380	    -12.97638330	      2.22374559	    -64.29335906	      4.53601179	     -6.13207812	     -0.03168978	      4.19086380	     15.34132863	      8.03296754	    -14.14804497	      3.69486924	    -21.94616877	     -6.73635974	    -14.06346634	     -4.40415762	     -0.58040644
      1.74533333	      2.15889874	      9.53767153	     -5.13735525	      1.39643617	      1.01032427	      0.26641893	     15.53005667	    -12.74110213	      2.30189428	    -63.69658249	      5.26108682	     -6.00159245	     -0.09211404	      3.52707772	     15.20632272	      8.32436719	    -13.66081528	      3.65963806	    -22.02003757	     -6.73903524	    -14.15716990	     -4.16759443	     -0.84378641
      1.74950000	      2.21639323	      9.41024849	     -5.01437316	      1.40124947	      1.01097436	      0.26622492	     15.95195785	    -12.53161660	      2.37906322	    -63.07968793	      5.94058894	     -5.90707243	     -0.15515187	      2.89248338	     15.08950440	      8.61816010	    -13.19241804	      3.62524974	    -22.08712938	     -6.74120465	    -14.24381565	     -3.95295382	     -1.09395273
      1.75366667	      2.27299649	      9.28694450	     -4.91783533	      1.40606683	      1.01157763	      0.26608506	     16.37336496	    -12.31887544	      2.48203132	    -62.42521849	      6.54520396	     -5.88506864	     -0.23685870	      2.25316807	     14.96999123	      8.88781923	    -12.70169157	      3.56112128	    -22.19481809	     -6.74660180	    -14.31791473	     -3.75721661	     -1.33108184
      1.75783333	      2.28286734	      9.14012552	     -4.79325913	      1.41084566	      1.01208244	      0.26593947	     16.82193100	    -12.07433217	      2.56988510	    -61.72985885	      7.12591675	     -5.91956776	     -0.28035203	      1.70245428	     14.81585890	      9.10984944	    -12.30294657	      3.56393072	    -22.19229384	     -6.74768839	    -14.36625506	     -3.54240181	     -1.49587863
      1.76200000	      2.35702525	      9.03140096	     -4.68493905	      1.41566525	      1.01260055	      0.26577121	     17.19922488	    -11.89996302	      2.64099116	    -61.00912685	      7.60315514	     -5.96140100	     -0.36318146	      1.05312609	     14.70906629	      9.38789779	    -11.82672974	      3.53600274	    -22.27654683	     -6.74896661	    -14.45441645	     -3.33161041	     -1.80097545
      1.76616667	      2.38271403	      8.91839693	     -4.56157181	      1.42037379	      1.01298812	      0.26564163	     17.62033656	    -11.70355308	      2.72786089	    -60.26360686	      8.11701877	     -6.05943466	     -0.41084050	      0.51131812	     14.58623593	      9.59889719	    -11.45824401	      3.53364277	    -22.28065416	     -6.74993769	    -14.52270218	     -3.16824380	     -1.95789282
      1.77033333	      2.44553597	      8.81406865	     -4.45659022	      1.42517760	      1.01340580	      0.26551105	     17.98455020	    -11.53133318	      2.80788731	    -59.46774136	      8.49863197	     -6.18700035	     -0.49573654	     -0.12073648	     14.47457760	      9.87497415	    -10.98550830	      3.50435239	    -22.36306004	     -6.75171605	    -14.60419722	     -2.96489467	     -2.24350605
      1.77450000	      2.43474296	      8.71543963	     -4.31721460	      1.42990958	      1.01364724	      0.26537895	     18.41902137	    -11.36030465	      2.87679967	    -58.65847777	      8.91510186	     -6.35204024	     -0.54567545	     -0.61638932	     14.35837158	     10.08981399	    -10.63145152	      3.50780881	    -22.36910721	     -6.75103774	    -14.62157936	     -2.81182805	     -2.40421812
      1.77866667	      2.48019691	      8.65944294	     -4.20741438	      1.43461824	      1.01388899	      0.26526201	     18.80287530	    -11.24781746	      2.96178023	    -57.83221262	      9.23804012	     -6.54955493	     -0.70596118	     -1.20232403	     14.29312257	     10.38141798	    -10.19101371	      3.43051844	    -22.52179405	     -6.75086513	    -14.69335620	     -2.66748047	     -2.74399928
      1.78283333	      2.47068008	      8.55321872	     -4.07250502	      1.43935658	      1.01404602	      0.26514164	     19.20136646	    -11.07664870	      3.02540793	    -56.94350434	      9.57169147	     -6.74024894	     -0.76024389	     -1.68633411	     14.16540637	     10.58127060	     -9.87088834	      3.49394266	    -22.49303401	     -6.74845909	    -14.71108655	     -2.49793367	     -2.87080182
      1.78700000	      2.50938082	      8.47254118	     -3.95144630	      1.44406540	      1.01422844	      0.26504270	     19.54826481	    -10.94353743	      3.09015661	    -56.02614647	      9.75902257	     -7.03096745	     -0.86394601	     -2.25309769	     14.06211115	     10.82944939	     -9.45839396	      3.49760532	    -22.53486123	     -6.74586928	    -14.78070764	     -2.33108951	     -3.15991441
      1.79116667	      2.50969075	      8.40444136	     -3.80857308	      1.44874579	      1.01429229	      0.26492801	     19.92180628	    -10.83007182	      3.14049296	    -55.08761676	      9.97549859	     -7.29669312	     -0.97814490	     -2.75022769	     13.96909569	     11.07101227	     -9.10867354	      3.50683075	    -22.58054309	     -6.74481977	    -14.81461470	     -2.18843490	     -3.41307378
      1.79533333	      2.52337390	      8.33621696	     -3.67502828	      1.45345853	      1.01433627	      0.26483713	     20.26570659	    -10.72000032	      3.19311982	    -54.11356033	     10.16299570	     -7.57939312	     -1.08036362	     -3.26369774	     13.87214461	     11.29219685	     -8.75417067	      3.53305137	    -22.59838286	     -6.74182909	    -14.85727464	     -2.05358375	     -3.63187475
      1.79950000	      2.51886861	      8.28208602	     -3.52996241	      1.45812556	      1.01429682	      0.26473960	     20.62015060	    -10.63137808	      3.23629655	    -53.11861184	     10.30561989	     -7.88116825	     -1.19279162	     -3.74205962	     13.78757656	     11.51832532	     -8.42736793	      3.56792935	    -22.61973411	     -6.73751135	    -14.88851855	     -1.92301065	     -3.88114376
      1.80366667	      2.49488652	      8.23955809	     -3.37005454	      1.46276305	      1.01420566	      0.26463875	     20.97916909	    -10.56398644	      3.26317186	    -52.08960841	     10.45364861	     -8.17690016	     -1.26722457	     -4.18699357	     13.70951496	     11.73894471	     -8.12165326	      3.60664967	    -22.60156014	     -6.73474364	    -14.90462062	     -1.81989727	     -4.06750986
      1.80783333	      2.49283528	      8.18671086	     -3.23607727	      1.46742964	      1.01410127	      0.26457323	     21.29881846	    -10.48643648	      3.29830779	    -51.01870116	     10.51914964	     -8.50062484	     -1.34519500	     -4.66740255	     13.61905189	     11.95006622	     -7.78679083	      3.65247302	    -22.60081999	     -6.73114104	    -14.93979579	     -1.69503948	     -4.28782491
      1.81200000	      2.48351640	      8.17411315	     -3.10929428	      1.47212091	      1.01392271	      0.26452018	     21.62611066	    -10.45766075	      3.33964878	    -49.93991626	     10.53802587	     -8.82190790	     -1.47049067	     -5.14450698	     13.56962006	     12.16669641	     -7.43539152	      3.69072490	    -22.64485815	     -6.72995523	    -14.95509519	     -1.61539774	     -4.58906220
      1.81616667	      2.46048346	      8.13698109	     -2.95158295	      1.47675131	      1.01371914	      0.26443982	     21.93701597	    -10.41841972	      3.33211260	    -48.81028060	     10.59230457	     -9.11535148	     -1.54560569	     -5.58639966	     13.48810067	     12.37939364	     -7.13164632	      3.75059839	    -22.61075373	     -6.72717757	    -14.98923509	     -1.51333595	     -4.75920817
      1.82033333	      2.45189994	      8.13950597	     -2.83190316	      1.48139518	      1.01346227	      0.26441724	     22.24038562	    -10.41398736	      3.36516674	    -47.67160475	     10.56386379	     -9.43946885	     -1.63441010	     -6.04607078	     13.44944151	     12.56227371	     -6.80867124	      3.81023836	    -22.61047811	     -6.72689497	    -15.00911380	     -1.45745672	     -4.99648639
